<mxfile host="Electron" modified="2024-01-31T13:14:36.285Z" agent="Mozilla/5.0 (X11; Linux x86_64) AppleWebKit/537.36 (KHTML, like Gecko) draw.io/23.0.2 Chrome/120.0.6099.109 Electron/28.1.0 Safari/537.36" etag="nk7vD_oyjWT0-ik0Tgro" version="23.0.2" type="device">
  <diagram id="C5RBs43oDa-KdzZeNtuy" name="Page-1">
    <mxGraphModel dx="1397" dy="849" grid="1" gridSize="10" guides="1" tooltips="1" connect="1" arrows="1" fold="1" page="1" pageScale="1" pageWidth="1654" pageHeight="1169" math="0" shadow="0">
      <root>
        <mxCell id="WIyWlLk6GJQsqaUBKTNV-0" />
        <mxCell id="WIyWlLk6GJQsqaUBKTNV-1" parent="WIyWlLk6GJQsqaUBKTNV-0" />
        <mxCell id="9_fdUrSxjmN1W93VfHhp-2" value="" style="rounded=0;whiteSpace=wrap;html=1;fillColor=#dae8fc;strokeColor=#6c8ebf;fontFamily=Helvetica;" parent="WIyWlLk6GJQsqaUBKTNV-1" vertex="1">
          <mxGeometry x="890" y="120" width="410" height="360" as="geometry" />
        </mxCell>
        <mxCell id="9_fdUrSxjmN1W93VfHhp-0" value="&lt;p style=&quot;margin:0px;margin-top:4px;text-align:center;&quot;&gt;&lt;i&gt;&amp;lt;&amp;lt;enumeration&amp;gt;&amp;gt;&lt;/i&gt;&lt;br&gt;&lt;b&gt;Unit&lt;/b&gt;&lt;/p&gt;&lt;hr size=&quot;1&quot;&gt;&lt;p style=&quot;margin:0px;margin-left:4px;&quot;&gt;&lt;br&gt;&lt;/p&gt;" style="verticalAlign=top;align=left;overflow=fill;fontSize=12;fontFamily=Helvetica;html=1;sketch=1;strokeWidth=2;" parent="WIyWlLk6GJQsqaUBKTNV-1" vertex="1">
          <mxGeometry x="900" y="270" width="140" height="80" as="geometry" />
        </mxCell>
        <mxCell id="9_fdUrSxjmN1W93VfHhp-4" value="Dependent Elements from eCH-0261" style="text;html=1;strokeColor=none;fillColor=none;align=left;verticalAlign=middle;whiteSpace=wrap;rounded=0;strokeWidth=2;fontFamily=Helvetica;" parent="WIyWlLk6GJQsqaUBKTNV-1" vertex="1">
          <mxGeometry x="900" y="120" width="290" height="30" as="geometry" />
        </mxCell>
        <mxCell id="9_fdUrSxjmN1W93VfHhp-14" style="edgeStyle=orthogonalEdgeStyle;rounded=0;orthogonalLoop=1;jettySize=auto;html=1;sketch=0;exitX=1.014;exitY=0.379;exitDx=0;exitDy=0;exitPerimeter=0;fontFamily=Helvetica;endArrow=none;endFill=0;" parent="WIyWlLk6GJQsqaUBKTNV-1" source="A5fvS7BDDAw0l9XVEY4Y-33" target="9_fdUrSxjmN1W93VfHhp-12" edge="1">
          <mxGeometry relative="1" as="geometry">
            <mxPoint x="1039.9999999999998" y="250" as="sourcePoint" />
            <Array as="points">
              <mxPoint x="1080" y="200" />
              <mxPoint x="1080" y="210" />
            </Array>
          </mxGeometry>
        </mxCell>
        <mxCell id="9_fdUrSxjmN1W93VfHhp-15" style="edgeStyle=orthogonalEdgeStyle;rounded=0;orthogonalLoop=1;jettySize=auto;html=1;sketch=0;exitX=1;exitY=0.75;exitDx=0;exitDy=0;fontFamily=Helvetica;endArrow=none;endFill=0;" parent="WIyWlLk6GJQsqaUBKTNV-1" source="A5fvS7BDDAw0l9XVEY4Y-33" target="9_fdUrSxjmN1W93VfHhp-13" edge="1">
          <mxGeometry relative="1" as="geometry">
            <mxPoint x="1039.9999999999998" y="290" as="sourcePoint" />
            <Array as="points">
              <mxPoint x="1070" y="230" />
              <mxPoint x="1070" y="310" />
            </Array>
          </mxGeometry>
        </mxCell>
        <mxCell id="9_fdUrSxjmN1W93VfHhp-12" value="&lt;p style=&quot;margin:0px;margin-top:4px;text-align:center;&quot;&gt;&lt;b&gt;Identifier&lt;/b&gt;&lt;/p&gt;&lt;hr size=&quot;1&quot;&gt;&lt;p style=&quot;margin:0px;margin-left:4px;&quot;&gt;&lt;br&gt;&lt;/p&gt;" style="verticalAlign=top;align=left;overflow=fill;fontSize=12;fontFamily=Helvetica;html=1;sketch=0;strokeWidth=2;rounded=0;" parent="WIyWlLk6GJQsqaUBKTNV-1" vertex="1">
          <mxGeometry x="1115" y="170" width="140" height="70" as="geometry" />
        </mxCell>
        <mxCell id="9_fdUrSxjmN1W93VfHhp-13" value="&lt;p style=&quot;margin:0px;margin-top:4px;text-align:center;&quot;&gt;&lt;b&gt;Descriptor&lt;/b&gt;&lt;/p&gt;&lt;hr size=&quot;1&quot;&gt;&lt;p style=&quot;margin:0px;margin-left:4px;&quot;&gt;&lt;br&gt;&lt;/p&gt;" style="verticalAlign=top;align=left;overflow=fill;fontSize=12;fontFamily=Helvetica;html=1;strokeWidth=2;" parent="WIyWlLk6GJQsqaUBKTNV-1" vertex="1">
          <mxGeometry x="1110" y="270" width="140" height="80" as="geometry" />
        </mxCell>
        <mxCell id="A5fvS7BDDAw0l9XVEY4Y-33" value="&lt;p style=&quot;margin:0px;margin-top:4px;text-align:center;&quot;&gt;&lt;b&gt;EnumeratedItem&lt;/b&gt;&lt;/p&gt;&lt;hr size=&quot;1&quot;&gt;&lt;p style=&quot;margin:0px;margin-left:4px;&quot;&gt;&lt;br&gt;&lt;/p&gt;" style="verticalAlign=top;align=left;overflow=fill;fontSize=12;fontFamily=Helvetica;html=1;sketch=0;strokeWidth=2;" parent="WIyWlLk6GJQsqaUBKTNV-1" vertex="1">
          <mxGeometry x="900" y="170" width="140" height="80" as="geometry" />
        </mxCell>
        <mxCell id="A5fvS7BDDAw0l9XVEY4Y-48" value="" style="endArrow=classicThin;html=1;sketch=0;fontFamily=Helvetica;curved=1;entryX=1;entryY=0.75;entryDx=0;entryDy=0;endFill=1;" parent="WIyWlLk6GJQsqaUBKTNV-1" source="Fh2eQYCEiK_2gspSJ3Qt-15" target="Fh2eQYCEiK_2gspSJ3Qt-17" edge="1">
          <mxGeometry width="50" height="50" relative="1" as="geometry">
            <mxPoint x="906.7" y="258" as="sourcePoint" />
            <mxPoint x="775" y="270" as="targetPoint" />
          </mxGeometry>
        </mxCell>
        <mxCell id="A5fvS7BDDAw0l9XVEY4Y-51" value="&lt;p style=&quot;margin:0px;margin-top:4px;text-align:center;&quot;&gt;&lt;i&gt;&amp;lt;&amp;lt;enumeration&amp;gt;&amp;gt;&lt;/i&gt;&lt;br&gt;&lt;b&gt;FertiliserStandard&lt;/b&gt;&lt;/p&gt;&lt;hr size=&quot;1&quot;&gt;&lt;p style=&quot;margin:0px;margin-left:4px;&quot;&gt;+ item: EnumeratedItem&lt;br&gt;&lt;/p&gt;&lt;p style=&quot;margin:0px;margin-left:4px;&quot;&gt;+ unit: Unit&lt;/p&gt;&lt;hr size=&quot;1&quot;&gt;&lt;p style=&quot;margin:0px;margin-left:4px;&quot;&gt;&lt;br&gt;&lt;/p&gt;" style="verticalAlign=top;align=left;overflow=fill;fontSize=12;fontFamily=Helvetica;html=1;sketch=0;strokeWidth=2;" parent="WIyWlLk6GJQsqaUBKTNV-1" vertex="1">
          <mxGeometry x="920" y="500" width="190" height="100" as="geometry" />
        </mxCell>
        <mxCell id="A5fvS7BDDAw0l9XVEY4Y-54" value="&lt;p style=&quot;margin:0px;margin-top:4px;text-align:center;&quot;&gt;&lt;b&gt;LocalUnit&lt;/b&gt;&lt;/p&gt;&lt;hr size=&quot;1&quot;&gt;&lt;p style=&quot;margin:0px;margin-left:4px;&quot;&gt;&amp;nbsp;&lt;br&gt;&lt;/p&gt;&lt;hr size=&quot;1&quot;&gt;&lt;p style=&quot;margin:0px;margin-left:4px;&quot;&gt;&lt;br&gt;&lt;/p&gt;" style="verticalAlign=top;align=left;overflow=fill;fontSize=12;fontFamily=Helvetica;html=1;sketch=1;strokeWidth=2;" parent="WIyWlLk6GJQsqaUBKTNV-1" vertex="1">
          <mxGeometry x="905" y="373" width="145" height="90" as="geometry" />
        </mxCell>
        <mxCell id="A5fvS7BDDAw0l9XVEY4Y-61" value="" style="endArrow=none;html=1;sketch=0;fontFamily=Helvetica;curved=1;endFill=0;" parent="WIyWlLk6GJQsqaUBKTNV-1" source="A5fvS7BDDAw0l9XVEY4Y-54" target="Fh2eQYCEiK_2gspSJ3Qt-0" edge="1">
          <mxGeometry width="50" height="50" relative="1" as="geometry">
            <mxPoint x="1155" y="864" as="sourcePoint" />
            <mxPoint x="1069.72" y="419.336" as="targetPoint" />
          </mxGeometry>
        </mxCell>
        <mxCell id="A5fvS7BDDAw0l9XVEY4Y-81" value="0..*" style="edgeLabel;resizable=0;html=1;align=right;verticalAlign=bottom;strokeWidth=2;fontFamily=Helvetica;" parent="WIyWlLk6GJQsqaUBKTNV-1" connectable="0" vertex="1">
          <mxGeometry x="588.2951492968261" y="499.9952648331084" as="geometry">
            <mxPoint x="4" y="-6" as="offset" />
          </mxGeometry>
        </mxCell>
        <mxCell id="A5fvS7BDDAw0l9XVEY4Y-89" value="0..*" style="edgeLabel;resizable=0;html=1;align=right;verticalAlign=bottom;strokeWidth=2;fontFamily=Helvetica;" parent="WIyWlLk6GJQsqaUBKTNV-1" connectable="0" vertex="1">
          <mxGeometry x="474.15406047821796" y="329.99847793851495" as="geometry" />
        </mxCell>
        <mxCell id="A5fvS7BDDAw0l9XVEY4Y-96" value="" style="swimlane;startSize=0;sketch=0;fontFamily=Helvetica;strokeWidth=2;" parent="WIyWlLk6GJQsqaUBKTNV-1" vertex="1">
          <mxGeometry x="360" y="70" width="228.3" height="100" as="geometry" />
        </mxCell>
        <mxCell id="9_fdUrSxjmN1W93VfHhp-1" value="&lt;h1&gt;&lt;span style=&quot;background-color: initial;&quot;&gt;eCH-0265&lt;/span&gt;&lt;/h1&gt;&lt;div&gt;&lt;span style=&quot;background-color: initial;&quot;&gt;&lt;br&gt;&lt;/span&gt;&lt;/div&gt;&lt;h1&gt;&lt;br&gt;&lt;/h1&gt;" style="text;html=1;strokeColor=none;fillColor=none;spacing=5;spacingTop=-20;whiteSpace=wrap;overflow=hidden;rounded=0;strokeWidth=2;fontFamily=Helvetica;" parent="A5fvS7BDDAw0l9XVEY4Y-96" vertex="1">
          <mxGeometry x="16.3" width="195.7" height="80" as="geometry" />
        </mxCell>
        <mxCell id="A5fvS7BDDAw0l9XVEY4Y-100" value="Areas and Crops" style="text;html=1;strokeColor=none;fillColor=none;align=left;verticalAlign=middle;whiteSpace=wrap;rounded=0;strokeWidth=2;fontFamily=Helvetica;sketch=0;" parent="A5fvS7BDDAw0l9XVEY4Y-96" vertex="1">
          <mxGeometry x="23.6" y="50" width="226.4" height="30" as="geometry" />
        </mxCell>
        <mxCell id="Fh2eQYCEiK_2gspSJ3Qt-0" value="&lt;p style=&quot;margin:0px;margin-top:4px;text-align:center;&quot;&gt;&lt;b&gt;LegalUnit&lt;/b&gt;&lt;/p&gt;&lt;hr size=&quot;1&quot;&gt;&lt;p style=&quot;margin:0px;margin-left:4px;&quot;&gt;&amp;nbsp;&lt;br&gt;&lt;/p&gt;&lt;hr size=&quot;1&quot;&gt;&lt;p style=&quot;margin:0px;margin-left:4px;&quot;&gt;&lt;br&gt;&lt;/p&gt;" style="verticalAlign=top;align=left;overflow=fill;fontSize=12;fontFamily=Helvetica;html=1;strokeWidth=2;" parent="WIyWlLk6GJQsqaUBKTNV-1" vertex="1">
          <mxGeometry x="1105" y="373" width="150" height="90" as="geometry" />
        </mxCell>
        <mxCell id="Fh2eQYCEiK_2gspSJ3Qt-12" value="" style="endArrow=classicThin;html=1;sketch=0;fontFamily=Helvetica;curved=1;startArrow=none;entryX=0;entryY=0.5;entryDx=0;entryDy=0;exitX=1;exitY=0.25;exitDx=0;exitDy=0;endFill=1;" parent="WIyWlLk6GJQsqaUBKTNV-1" source="Fh2eQYCEiK_2gspSJ3Qt-26" target="Fh2eQYCEiK_2gspSJ3Qt-27" edge="1">
          <mxGeometry width="50" height="50" relative="1" as="geometry">
            <mxPoint x="518.9083954491957" y="340" as="sourcePoint" />
            <mxPoint x="605.4000000000001" y="279.03999999999996" as="targetPoint" />
          </mxGeometry>
        </mxCell>
        <mxCell id="Fh2eQYCEiK_2gspSJ3Qt-15" value="&lt;p style=&quot;margin:0px;margin-top:4px;text-align:center;&quot;&gt;&lt;b&gt;CultivationType&lt;/b&gt;&lt;/p&gt;&lt;hr size=&quot;1&quot;&gt;&lt;p style=&quot;margin:0px;margin-left:4px;&quot;&gt;&lt;br&gt;&lt;/p&gt;" style="verticalAlign=top;align=left;overflow=fill;fontSize=12;fontFamily=Helvetica;html=1;sketch=0;strokeWidth=2;" parent="WIyWlLk6GJQsqaUBKTNV-1" vertex="1">
          <mxGeometry x="643" y="490" width="181.6" height="80" as="geometry" />
        </mxCell>
        <mxCell id="Fh2eQYCEiK_2gspSJ3Qt-16" value="" style="endArrow=classicThin;html=1;sketch=0;fontFamily=Helvetica;curved=1;exitX=0;exitY=0.25;exitDx=0;exitDy=0;endFill=1;" parent="WIyWlLk6GJQsqaUBKTNV-1" source="Fh2eQYCEiK_2gspSJ3Qt-3" target="Fh2eQYCEiK_2gspSJ3Qt-15" edge="1">
          <mxGeometry width="50" height="50" relative="1" as="geometry">
            <mxPoint x="980" y="620" as="sourcePoint" />
            <mxPoint x="789.0406976744187" y="746" as="targetPoint" />
          </mxGeometry>
        </mxCell>
        <mxCell id="Fh2eQYCEiK_2gspSJ3Qt-17" value="&lt;p style=&quot;margin:0px;margin-top:4px;text-align:center;&quot;&gt;&lt;b&gt;DirectPaymentCrop&lt;/b&gt;&lt;/p&gt;&lt;hr size=&quot;1&quot;&gt;&lt;p style=&quot;margin:0px;margin-left:4px;&quot;&gt;&amp;nbsp;item: EnumeratedItem&lt;br&gt;&lt;/p&gt;&lt;hr size=&quot;1&quot;&gt;&lt;p style=&quot;margin:0px;margin-left:4px;&quot;&gt;&lt;br&gt;&lt;/p&gt;" style="verticalAlign=top;align=left;overflow=fill;fontSize=12;fontFamily=Helvetica;html=1;sketch=0;strokeWidth=2;" parent="WIyWlLk6GJQsqaUBKTNV-1" vertex="1">
          <mxGeometry x="259.99999999999994" y="510" width="190" height="100" as="geometry" />
        </mxCell>
        <mxCell id="Fh2eQYCEiK_2gspSJ3Qt-19" value="" style="endArrow=classicThin;html=1;sketch=0;fontFamily=Helvetica;curved=1;endFill=1;" parent="WIyWlLk6GJQsqaUBKTNV-1" source="Fh2eQYCEiK_2gspSJ3Qt-17" target="Fh2eQYCEiK_2gspSJ3Qt-31" edge="1">
          <mxGeometry width="50" height="50" relative="1" as="geometry">
            <mxPoint x="980" y="620" as="sourcePoint" />
            <mxPoint x="1200" y="384.3273475728156" as="targetPoint" />
          </mxGeometry>
        </mxCell>
        <mxCell id="Fh2eQYCEiK_2gspSJ3Qt-20" value="" style="endArrow=classicThin;html=1;sketch=0;fontFamily=Helvetica;endFill=1;edgeStyle=orthogonalEdgeStyle;" parent="WIyWlLk6GJQsqaUBKTNV-1" source="Fh2eQYCEiK_2gspSJ3Qt-17" target="Fh2eQYCEiK_2gspSJ3Qt-32" edge="1">
          <mxGeometry width="50" height="50" relative="1" as="geometry">
            <mxPoint x="980" y="620" as="sourcePoint" />
            <mxPoint x="1068.3212355835149" y="345" as="targetPoint" />
            <Array as="points">
              <mxPoint x="370" y="900" />
            </Array>
          </mxGeometry>
        </mxCell>
        <mxCell id="Fh2eQYCEiK_2gspSJ3Qt-21" value="" style="endArrow=classicThin;html=1;sketch=0;fontFamily=Helvetica;curved=1;entryX=0.802;entryY=1.013;entryDx=0;entryDy=0;entryPerimeter=0;exitX=0.337;exitY=0.003;exitDx=0;exitDy=0;exitPerimeter=0;endFill=1;" parent="WIyWlLk6GJQsqaUBKTNV-1" source="Fh2eQYCEiK_2gspSJ3Qt-26" target="Fh2eQYCEiK_2gspSJ3Qt-24" edge="1">
          <mxGeometry width="50" height="50" relative="1" as="geometry">
            <mxPoint x="449.65407319952783" y="340" as="sourcePoint" />
            <mxPoint x="410" y="300" as="targetPoint" />
          </mxGeometry>
        </mxCell>
        <mxCell id="Fh2eQYCEiK_2gspSJ3Qt-24" value="&lt;p style=&quot;margin:0px;margin-top:4px;text-align:center;&quot;&gt;&lt;b&gt;Variety&lt;/b&gt;&lt;/p&gt;&lt;hr size=&quot;1&quot;&gt;&lt;p style=&quot;margin:0px;margin-left:4px;&quot;&gt;&amp;nbsp;item: EnumeratedItem&lt;br&gt;&lt;/p&gt;&lt;hr size=&quot;1&quot;&gt;&lt;p style=&quot;margin:0px;margin-left:4px;&quot;&gt;&lt;br&gt;&lt;/p&gt;" style="verticalAlign=top;align=left;overflow=fill;fontSize=12;fontFamily=Helvetica;html=1;sketch=0;strokeWidth=2;" parent="WIyWlLk6GJQsqaUBKTNV-1" vertex="1">
          <mxGeometry x="280" y="200" width="190" height="100" as="geometry" />
        </mxCell>
        <mxCell id="Fh2eQYCEiK_2gspSJ3Qt-26" value="&lt;p style=&quot;margin:0px;margin-top:4px;text-align:center;&quot;&gt;&lt;b&gt;BotanicalPlant&lt;/b&gt;&lt;/p&gt;&lt;hr size=&quot;1&quot;&gt;&lt;p style=&quot;margin:0px;margin-left:4px;&quot;&gt;&amp;nbsp;&lt;br&gt;&lt;/p&gt;&lt;hr size=&quot;1&quot;&gt;&lt;p style=&quot;margin:0px;margin-left:4px;&quot;&gt;&lt;br&gt;&lt;/p&gt;" style="verticalAlign=top;align=left;overflow=fill;fontSize=12;fontFamily=Helvetica;html=1;sketch=0;strokeWidth=2;" parent="WIyWlLk6GJQsqaUBKTNV-1" vertex="1">
          <mxGeometry x="410" y="373" width="190" height="100" as="geometry" />
        </mxCell>
        <mxCell id="Fh2eQYCEiK_2gspSJ3Qt-27" value="&lt;p style=&quot;margin:0px;margin-top:4px;text-align:center;&quot;&gt;&lt;b&gt;AgronomicCropCategory&lt;/b&gt;&lt;/p&gt;&lt;hr size=&quot;1&quot;&gt;&lt;p style=&quot;margin:0px;margin-left:4px;&quot;&gt;&amp;nbsp;item: EnumeratedItem&lt;br&gt;&lt;/p&gt;&lt;hr size=&quot;1&quot;&gt;&lt;p style=&quot;margin:0px;margin-left:4px;&quot;&gt;&lt;br&gt;&lt;/p&gt;" style="verticalAlign=top;align=left;overflow=fill;fontSize=12;fontFamily=Helvetica;html=1;sketch=0;strokeWidth=2;" parent="WIyWlLk6GJQsqaUBKTNV-1" vertex="1">
          <mxGeometry x="661.6" y="350" width="190" height="100" as="geometry" />
        </mxCell>
        <mxCell id="Fh2eQYCEiK_2gspSJ3Qt-28" value="&lt;p style=&quot;margin:0px;margin-top:4px;text-align:center;&quot;&gt;&lt;b&gt;BotanicalPlantFamily&lt;/b&gt;&lt;/p&gt;&lt;hr size=&quot;1&quot;&gt;&lt;p style=&quot;margin:0px;margin-left:4px;&quot;&gt;&amp;nbsp;item: EnumeratedItem&lt;br&gt;&lt;/p&gt;&lt;hr size=&quot;1&quot;&gt;&lt;p style=&quot;margin:0px;margin-left:4px;&quot;&gt;&lt;br&gt;&lt;/p&gt;" style="verticalAlign=top;align=left;overflow=fill;fontSize=12;fontFamily=Helvetica;html=1;sketch=0;strokeWidth=2;" parent="WIyWlLk6GJQsqaUBKTNV-1" vertex="1">
          <mxGeometry x="570" y="200" width="190" height="100" as="geometry" />
        </mxCell>
        <mxCell id="Fh2eQYCEiK_2gspSJ3Qt-29" value="" style="endArrow=classicThin;html=1;sketch=0;fontFamily=Helvetica;curved=1;startArrow=none;entryX=0.25;entryY=1;entryDx=0;entryDy=0;exitX=0.539;exitY=-0.01;exitDx=0;exitDy=0;exitPerimeter=0;endFill=1;" parent="WIyWlLk6GJQsqaUBKTNV-1" source="Fh2eQYCEiK_2gspSJ3Qt-26" target="Fh2eQYCEiK_2gspSJ3Qt-28" edge="1">
          <mxGeometry width="50" height="50" relative="1" as="geometry">
            <mxPoint x="690" y="360" as="sourcePoint" />
            <mxPoint x="654.7" y="310.29999999999995" as="targetPoint" />
          </mxGeometry>
        </mxCell>
        <mxCell id="Fh2eQYCEiK_2gspSJ3Qt-31" value="&lt;p style=&quot;margin:0px;margin-top:4px;text-align:center;&quot;&gt;&lt;b&gt;DirectPaymentAreaCategory&lt;/b&gt;&lt;/p&gt;&lt;hr size=&quot;1&quot;&gt;&lt;p style=&quot;margin:0px;margin-left:4px;&quot;&gt;&amp;nbsp;item: EnumeratedItem&lt;br&gt;&lt;/p&gt;&lt;hr size=&quot;1&quot;&gt;&lt;p style=&quot;margin:0px;margin-left:4px;&quot;&gt;&lt;br&gt;&lt;/p&gt;" style="verticalAlign=top;align=left;overflow=fill;fontSize=12;fontFamily=Helvetica;html=1;sketch=0;strokeWidth=2;" parent="WIyWlLk6GJQsqaUBKTNV-1" vertex="1">
          <mxGeometry x="140" y="670" width="190" height="100" as="geometry" />
        </mxCell>
        <mxCell id="Fh2eQYCEiK_2gspSJ3Qt-32" value="&lt;p style=&quot;margin:0px;margin-top:4px;text-align:center;&quot;&gt;&lt;b&gt;DirectPaymentProgramme&lt;/b&gt;&lt;/p&gt;&lt;hr size=&quot;1&quot;&gt;&lt;p style=&quot;margin:0px;margin-left:4px;&quot;&gt;&amp;nbsp;item: EnumeratedItem&lt;br&gt;&lt;/p&gt;&lt;hr size=&quot;1&quot;&gt;&lt;p style=&quot;margin:0px;margin-left:4px;&quot;&gt;&lt;br&gt;&lt;/p&gt;" style="verticalAlign=top;align=left;overflow=fill;fontSize=12;fontFamily=Helvetica;html=1;sketch=0;strokeWidth=2;" parent="WIyWlLk6GJQsqaUBKTNV-1" vertex="1">
          <mxGeometry x="493.3" y="850" width="190" height="100" as="geometry" />
        </mxCell>
        <mxCell id="Fh2eQYCEiK_2gspSJ3Qt-33" value="&lt;p style=&quot;margin:0px;margin-top:4px;text-align:center;&quot;&gt;&lt;b&gt;Programme&lt;/b&gt;&lt;/p&gt;&lt;hr size=&quot;1&quot;&gt;&lt;p style=&quot;margin:0px;margin-left:4px;&quot;&gt;&amp;nbsp;item: EnumeratedItem&lt;br&gt;&lt;/p&gt;&lt;hr size=&quot;1&quot;&gt;&lt;p style=&quot;margin:0px;margin-left:4px;&quot;&gt;&lt;br&gt;&lt;/p&gt;" style="verticalAlign=top;align=left;overflow=fill;fontSize=12;fontFamily=Helvetica;html=1;sketch=0;strokeWidth=2;" parent="WIyWlLk6GJQsqaUBKTNV-1" vertex="1">
          <mxGeometry x="415" y="630" width="180" height="90" as="geometry" />
        </mxCell>
        <mxCell id="Fh2eQYCEiK_2gspSJ3Qt-34" value="" style="endArrow=classicThin;html=1;sketch=0;fontFamily=Helvetica;curved=1;startArrow=none;endFill=1;" parent="WIyWlLk6GJQsqaUBKTNV-1" source="Fh2eQYCEiK_2gspSJ3Qt-15" target="Fh2eQYCEiK_2gspSJ3Qt-33" edge="1">
          <mxGeometry width="50" height="50" relative="1" as="geometry">
            <mxPoint x="980" y="620" as="sourcePoint" />
            <mxPoint x="789.0406976744187" y="746" as="targetPoint" />
          </mxGeometry>
        </mxCell>
        <mxCell id="Fh2eQYCEiK_2gspSJ3Qt-35" value="" style="endArrow=classicThin;html=1;sketch=0;fontFamily=Helvetica;curved=1;entryX=0;entryY=0.5;entryDx=0;entryDy=0;endFill=1;" parent="WIyWlLk6GJQsqaUBKTNV-1" source="Fh2eQYCEiK_2gspSJ3Qt-3" target="0xT9rQlxsfcpk1HTCQxQ-0" edge="1">
          <mxGeometry width="50" height="50" relative="1" as="geometry">
            <mxPoint x="980" y="620" as="sourcePoint" />
            <mxPoint x="1045" y="662.4999999999998" as="targetPoint" />
          </mxGeometry>
        </mxCell>
        <mxCell id="Fh2eQYCEiK_2gspSJ3Qt-37" value="" style="endArrow=none;html=1;sketch=0;fontFamily=Helvetica;curved=1;endFill=0;" parent="WIyWlLk6GJQsqaUBKTNV-1" source="Fh2eQYCEiK_2gspSJ3Qt-15" target="A5fvS7BDDAw0l9XVEY4Y-51" edge="1">
          <mxGeometry width="50" height="50" relative="1" as="geometry">
            <mxPoint x="1320.96" y="637" as="sourcePoint" />
            <mxPoint x="1130.000697674419" y="763" as="targetPoint" />
          </mxGeometry>
        </mxCell>
        <mxCell id="Fh2eQYCEiK_2gspSJ3Qt-51" value="1..*" style="edgeLabel;resizable=0;html=1;align=center;verticalAlign=middle;sketch=1;fontFamily=Helvetica;strokeWidth=2;" parent="WIyWlLk6GJQsqaUBKTNV-1" connectable="0" vertex="1">
          <mxGeometry x="1139.9992095369237" y="819.9976021193165" as="geometry">
            <mxPoint x="-13" y="16" as="offset" />
          </mxGeometry>
        </mxCell>
        <mxCell id="Fh2eQYCEiK_2gspSJ3Qt-54" value="" style="endArrow=none;html=1;sketch=0;fontFamily=Helvetica;curved=1;exitX=0.25;exitY=0;exitDx=0;exitDy=0;entryX=0.25;entryY=1;entryDx=0;entryDy=0;endFill=0;" parent="WIyWlLk6GJQsqaUBKTNV-1" source="Fh2eQYCEiK_2gspSJ3Qt-17" target="Fh2eQYCEiK_2gspSJ3Qt-24" edge="1">
          <mxGeometry width="50" height="50" relative="1" as="geometry">
            <mxPoint x="1320.96" y="637" as="sourcePoint" />
            <mxPoint x="1130.000697674419" y="763" as="targetPoint" />
          </mxGeometry>
        </mxCell>
        <mxCell id="Fh2eQYCEiK_2gspSJ3Qt-56" value="0..*" style="edgeLabel;resizable=0;html=1;align=right;verticalAlign=bottom;strokeWidth=2;fontFamily=Helvetica;" parent="WIyWlLk6GJQsqaUBKTNV-1" connectable="0" vertex="1">
          <mxGeometry x="435.0051492968262" y="329.9952648331084" as="geometry">
            <mxPoint x="190" y="302" as="offset" />
          </mxGeometry>
        </mxCell>
        <mxCell id="Fh2eQYCEiK_2gspSJ3Qt-64" value="&lt;p style=&quot;margin:0px;margin-top:4px;text-align:center;&quot;&gt;&lt;b&gt;Area&lt;/b&gt;&lt;/p&gt;&lt;hr size=&quot;1&quot;&gt;&lt;p style=&quot;margin:0px;margin-left:4px;&quot;&gt;multiSurface: interis-geometry:MultiSurface&lt;br&gt;&lt;/p&gt;&lt;hr size=&quot;1&quot;&gt;&lt;p style=&quot;margin:0px;margin-left:4px;&quot;&gt;&lt;br&gt;&lt;/p&gt;" style="verticalAlign=top;align=left;overflow=fill;fontSize=12;fontFamily=Helvetica;html=1;sketch=0;strokeWidth=2;" parent="WIyWlLk6GJQsqaUBKTNV-1" vertex="1">
          <mxGeometry x="1045" y="855" width="235" height="90" as="geometry" />
        </mxCell>
        <mxCell id="Fh2eQYCEiK_2gspSJ3Qt-75" style="edgeStyle=none;rounded=0;sketch=0;orthogonalLoop=1;jettySize=auto;html=1;entryX=0.708;entryY=1.014;entryDx=0;entryDy=0;fontFamily=Helvetica;endArrow=classicThin;endFill=1;startArrow=none;startFill=0;exitX=0.783;exitY=0.025;exitDx=0;exitDy=0;exitPerimeter=0;entryPerimeter=0;" parent="WIyWlLk6GJQsqaUBKTNV-1" source="Fh2eQYCEiK_2gspSJ3Qt-64" target="Fh2eQYCEiK_2gspSJ3Qt-0" edge="1">
          <mxGeometry relative="1" as="geometry">
            <mxPoint x="1122.5675675675675" y="639.9999999999998" as="sourcePoint" />
          </mxGeometry>
        </mxCell>
        <mxCell id="Fh2eQYCEiK_2gspSJ3Qt-69" value="0..*" style="edgeLabel;resizable=0;html=1;align=right;verticalAlign=bottom;strokeWidth=2;fontFamily=Helvetica;" parent="WIyWlLk6GJQsqaUBKTNV-1" connectable="0" vertex="1">
          <mxGeometry x="350.004060478218" y="316.99847793851495" as="geometry" />
        </mxCell>
        <mxCell id="Fh2eQYCEiK_2gspSJ3Qt-70" value="" style="endArrow=classicThin;html=1;sketch=0;fontFamily=Helvetica;curved=1;exitX=1;exitY=1;exitDx=0;exitDy=0;endFill=1;" parent="WIyWlLk6GJQsqaUBKTNV-1" source="Fh2eQYCEiK_2gspSJ3Qt-3" target="Fh2eQYCEiK_2gspSJ3Qt-64" edge="1">
          <mxGeometry width="50" height="50" relative="1" as="geometry">
            <mxPoint x="870" y="730" as="sourcePoint" />
            <mxPoint x="1010" y="531.5" as="targetPoint" />
          </mxGeometry>
        </mxCell>
        <mxCell id="Fh2eQYCEiK_2gspSJ3Qt-74" value="choice" style="edgeLabel;resizable=0;html=1;align=center;verticalAlign=middle;sketch=1;fontFamily=Helvetica;strokeWidth=2;" parent="WIyWlLk6GJQsqaUBKTNV-1" connectable="0" vertex="1">
          <mxGeometry x="977.4992095369237" y="669.9976021193165" as="geometry">
            <mxPoint x="-13" y="16" as="offset" />
          </mxGeometry>
        </mxCell>
        <mxCell id="Fh2eQYCEiK_2gspSJ3Qt-77" value="responsible&lt;br&gt;Enterprise" style="edgeLabel;resizable=0;html=1;align=center;verticalAlign=middle;sketch=1;fontFamily=Helvetica;strokeWidth=2;" parent="WIyWlLk6GJQsqaUBKTNV-1" connectable="0" vertex="1">
          <mxGeometry x="1189.9992095369237" y="539.9976021193165" as="geometry">
            <mxPoint x="-13" y="16" as="offset" />
          </mxGeometry>
        </mxCell>
        <mxCell id="Fh2eQYCEiK_2gspSJ3Qt-78" value="" style="endArrow=classicThin;html=1;sketch=0;fontFamily=Helvetica;curved=1;exitX=0;exitY=0.75;exitDx=0;exitDy=0;entryX=1;entryY=0.5;entryDx=0;entryDy=0;endFill=1;" parent="WIyWlLk6GJQsqaUBKTNV-1" source="Fh2eQYCEiK_2gspSJ3Qt-3" target="Fh2eQYCEiK_2gspSJ3Qt-32" edge="1">
          <mxGeometry width="50" height="50" relative="1" as="geometry">
            <mxPoint x="680" y="640" as="sourcePoint" />
            <mxPoint x="557.5" y="595" as="targetPoint" />
          </mxGeometry>
        </mxCell>
        <mxCell id="Fh2eQYCEiK_2gspSJ3Qt-79" value="0..*" style="edgeLabel;resizable=0;html=1;align=right;verticalAlign=bottom;strokeWidth=2;fontFamily=Helvetica;" parent="WIyWlLk6GJQsqaUBKTNV-1" connectable="0" vertex="1">
          <mxGeometry x="299.9951492968262" y="617.4952648331084" as="geometry">
            <mxPoint x="190" y="302" as="offset" />
          </mxGeometry>
        </mxCell>
        <mxCell id="Fh2eQYCEiK_2gspSJ3Qt-3" value="&lt;p style=&quot;margin:0px;margin-top:4px;text-align:center;&quot;&gt;&lt;b&gt;Cultivation&lt;/b&gt;&lt;/p&gt;&lt;hr size=&quot;1&quot;&gt;&lt;p style=&quot;margin:0px;margin-left:4px;&quot;&gt;&amp;nbsp;&lt;br&gt;&lt;/p&gt;&lt;hr size=&quot;1&quot;&gt;&lt;p style=&quot;margin:0px;margin-left:4px;&quot;&gt;&lt;br&gt;&lt;/p&gt;" style="verticalAlign=top;align=left;overflow=fill;fontSize=12;fontFamily=Helvetica;html=1;sketch=0;strokeWidth=2;" parent="WIyWlLk6GJQsqaUBKTNV-1" vertex="1">
          <mxGeometry x="790" y="620" width="145" height="90" as="geometry" />
        </mxCell>
        <mxCell id="dqcy-bDHWrXn-O4MTxks-1" value="&lt;p style=&quot;margin:0px;margin-top:4px;text-align:center;&quot;&gt;&lt;i&gt;&amp;lt;&amp;lt;enumeration&amp;gt;&amp;gt;&lt;/i&gt;&lt;br&gt;&lt;b&gt;Unit&lt;/b&gt;&lt;/p&gt;&lt;hr size=&quot;1&quot;&gt;&lt;p style=&quot;margin:0px;margin-left:4px;&quot;&gt;&lt;br&gt;&lt;/p&gt;" style="verticalAlign=top;align=left;overflow=fill;fontSize=12;fontFamily=Helvetica;html=1;sketch=0;strokeWidth=2;" parent="WIyWlLk6GJQsqaUBKTNV-1" vertex="1">
          <mxGeometry x="900" y="270" width="140" height="80" as="geometry" />
        </mxCell>
        <mxCell id="dqcy-bDHWrXn-O4MTxks-2" value="&lt;p style=&quot;margin:0px;margin-top:4px;text-align:center;&quot;&gt;&lt;b&gt;LocalUnit&lt;/b&gt;&lt;/p&gt;&lt;hr size=&quot;1&quot;&gt;&lt;p style=&quot;margin:0px;margin-left:4px;&quot;&gt;&amp;nbsp;&lt;br&gt;&lt;/p&gt;&lt;hr size=&quot;1&quot;&gt;&lt;p style=&quot;margin:0px;margin-left:4px;&quot;&gt;&lt;br&gt;&lt;/p&gt;" style="verticalAlign=top;align=left;overflow=fill;fontSize=12;fontFamily=Helvetica;html=1;sketch=0;strokeWidth=2;" parent="WIyWlLk6GJQsqaUBKTNV-1" vertex="1">
          <mxGeometry x="905" y="373" width="145" height="90" as="geometry" />
        </mxCell>
        <mxCell id="0xT9rQlxsfcpk1HTCQxQ-0" value="&lt;p style=&quot;margin:0px;margin-top:4px;text-align:center;&quot;&gt;&lt;b&gt;Point&lt;/b&gt;&lt;/p&gt;&lt;hr size=&quot;1&quot;&gt;&lt;p style=&quot;margin:0px;margin-left:4px;&quot;&gt;&amp;nbsp;coordinates: interlis-geometry:Coord&lt;br&gt;&lt;/p&gt;&lt;hr size=&quot;1&quot;&gt;&lt;p style=&quot;margin:0px;margin-left:4px;&quot;&gt;&lt;br&gt;&lt;/p&gt;" style="verticalAlign=top;align=left;overflow=fill;fontSize=12;fontFamily=Helvetica;html=1;sketch=0;strokeWidth=2;" parent="WIyWlLk6GJQsqaUBKTNV-1" vertex="1">
          <mxGeometry x="1000" y="625" width="210" height="90" as="geometry" />
        </mxCell>
        <mxCell id="0xT9rQlxsfcpk1HTCQxQ-1" value="&lt;p style=&quot;margin:0px;margin-top:4px;text-align:center;&quot;&gt;&lt;b&gt;Validity&lt;/b&gt;&lt;/p&gt;&lt;hr size=&quot;1&quot;&gt;&lt;p style=&quot;margin:0px;margin-left:4px;&quot;&gt;&lt;br&gt;&lt;/p&gt;" style="verticalAlign=top;align=left;overflow=fill;fontSize=12;fontFamily=Helvetica;html=1;sketch=0;strokeWidth=2;rounded=0;" parent="WIyWlLk6GJQsqaUBKTNV-1" vertex="1">
          <mxGeometry x="1050" y="730" width="140" height="70" as="geometry" />
        </mxCell>
        <mxCell id="0xT9rQlxsfcpk1HTCQxQ-5" value="responsible&lt;br&gt;Enterprise" style="edgeLabel;resizable=0;html=1;align=center;verticalAlign=middle;sketch=1;fontFamily=Helvetica;strokeWidth=2;" parent="WIyWlLk6GJQsqaUBKTNV-1" connectable="0" vertex="1">
          <mxGeometry x="1259.9992095369237" y="599.9976021193165" as="geometry">
            <mxPoint x="-13" y="16" as="offset" />
          </mxGeometry>
        </mxCell>
        <mxCell id="0xT9rQlxsfcpk1HTCQxQ-6" style="edgeStyle=none;rounded=0;sketch=0;orthogonalLoop=1;jettySize=auto;html=1;entryX=0.47;entryY=0.994;entryDx=0;entryDy=0;fontFamily=Helvetica;endArrow=classicThin;endFill=1;startArrow=none;startFill=0;entryPerimeter=0;" parent="WIyWlLk6GJQsqaUBKTNV-1" source="0xT9rQlxsfcpk1HTCQxQ-0" target="Fh2eQYCEiK_2gspSJ3Qt-0" edge="1">
          <mxGeometry relative="1" as="geometry">
            <mxPoint x="1274" y="867" as="sourcePoint" />
            <mxPoint x="1296" y="474" as="targetPoint" />
          </mxGeometry>
        </mxCell>
        <mxCell id="0xT9rQlxsfcpk1HTCQxQ-9" value="&lt;p style=&quot;margin:0px;margin-top:4px;text-align:center;&quot;&gt;&lt;b&gt;Measurement&lt;/b&gt;&lt;/p&gt;&lt;hr size=&quot;1&quot;&gt;&lt;p style=&quot;margin:0px;margin-left:4px;&quot;&gt;&amp;nbsp;&lt;br&gt;&lt;/p&gt;&lt;hr size=&quot;1&quot;&gt;&lt;p style=&quot;margin:0px;margin-left:4px;&quot;&gt;&lt;br&gt;&lt;/p&gt;" style="verticalAlign=top;align=left;overflow=fill;fontSize=12;fontFamily=Helvetica;html=1;sketch=0;strokeWidth=2;" parent="WIyWlLk6GJQsqaUBKTNV-1" vertex="1">
          <mxGeometry x="800" y="830" width="145" height="90" as="geometry" />
        </mxCell>
        <mxCell id="0xT9rQlxsfcpk1HTCQxQ-10" value="" style="endArrow=classicThin;html=1;sketch=0;fontFamily=Helvetica;curved=1;endFill=1;exitX=0.612;exitY=1.001;exitDx=0;exitDy=0;exitPerimeter=0;" parent="WIyWlLk6GJQsqaUBKTNV-1" source="Fh2eQYCEiK_2gspSJ3Qt-3" target="0xT9rQlxsfcpk1HTCQxQ-9" edge="1">
          <mxGeometry width="50" height="50" relative="1" as="geometry">
            <mxPoint x="945" y="677" as="sourcePoint" />
            <mxPoint x="1045" y="680" as="targetPoint" />
          </mxGeometry>
        </mxCell>
        <mxCell id="0xT9rQlxsfcpk1HTCQxQ-11" value="areaSize" style="edgeLabel;resizable=0;html=1;align=center;verticalAlign=middle;sketch=1;fontFamily=Helvetica;strokeWidth=2;" parent="WIyWlLk6GJQsqaUBKTNV-1" connectable="0" vertex="1">
          <mxGeometry x="919.9992095369237" y="749.9976021193165" as="geometry">
            <mxPoint x="-13" y="16" as="offset" />
          </mxGeometry>
        </mxCell>
        <mxCell id="0xT9rQlxsfcpk1HTCQxQ-12" value="0..*" style="edgeLabel;resizable=0;html=1;align=center;verticalAlign=middle;sketch=1;fontFamily=Helvetica;strokeWidth=2;" parent="WIyWlLk6GJQsqaUBKTNV-1" connectable="0" vertex="1">
          <mxGeometry x="999.9992095369237" y="639.9976021193165" as="geometry">
            <mxPoint x="-13" y="16" as="offset" />
          </mxGeometry>
        </mxCell>
        <mxCell id="0xT9rQlxsfcpk1HTCQxQ-13" value="&lt;p style=&quot;margin:0px;margin-top:4px;text-align:center;&quot;&gt;&lt;b&gt;FertilisationStandard&lt;/b&gt;&lt;/p&gt;&lt;hr size=&quot;1&quot;&gt;&lt;p style=&quot;margin:0px;margin-left:4px;&quot;&gt;&lt;br&gt;&lt;/p&gt;" style="verticalAlign=top;align=left;overflow=fill;fontSize=12;fontFamily=Helvetica;html=1;sketch=0;strokeWidth=2;" parent="WIyWlLk6GJQsqaUBKTNV-1" vertex="1">
          <mxGeometry x="530" y="740" width="181.6" height="80" as="geometry" />
        </mxCell>
        <mxCell id="0xT9rQlxsfcpk1HTCQxQ-14" value="" style="endArrow=classicThin;html=1;sketch=0;fontFamily=Helvetica;curved=1;endFill=1;exitX=0.473;exitY=0.991;exitDx=0;exitDy=0;exitPerimeter=0;" parent="WIyWlLk6GJQsqaUBKTNV-1" source="Fh2eQYCEiK_2gspSJ3Qt-15" target="0xT9rQlxsfcpk1HTCQxQ-13" edge="1">
          <mxGeometry width="50" height="50" relative="1" as="geometry">
            <mxPoint x="800" y="698" as="sourcePoint" />
            <mxPoint x="560" y="903" as="targetPoint" />
          </mxGeometry>
        </mxCell>
        <mxCell id="0xT9rQlxsfcpk1HTCQxQ-15" value="" style="endArrow=classicThin;html=1;sketch=0;fontFamily=Helvetica;curved=1;entryX=0.946;entryY=1.003;entryDx=0;entryDy=0;endFill=1;entryPerimeter=0;exitX=-0.001;exitY=0.341;exitDx=0;exitDy=0;exitPerimeter=0;" parent="WIyWlLk6GJQsqaUBKTNV-1" source="Fh2eQYCEiK_2gspSJ3Qt-15" target="Fh2eQYCEiK_2gspSJ3Qt-26" edge="1">
          <mxGeometry width="50" height="50" relative="1" as="geometry">
            <mxPoint x="653" y="558" as="sourcePoint" />
            <mxPoint x="460" y="595" as="targetPoint" />
          </mxGeometry>
        </mxCell>
        <mxCell id="1dUMDGYSha67_zrGDrwt-0" value="&lt;br&gt;Note: Not strict UML, for conceptual&lt;br&gt;visualisation purposes only!&lt;br&gt;&lt;br&gt;Default Cardinality: 1&lt;br&gt;Attributes selectively depicted.&lt;br&gt;Datatypes selectively depicted.&lt;br&gt;&lt;br&gt;&quot;Choice&quot; semantics included." style="text;html=1;strokeColor=none;fillColor=none;align=left;verticalAlign=middle;whiteSpace=wrap;rounded=0;strokeWidth=2;fontFamily=Helvetica;" vertex="1" parent="WIyWlLk6GJQsqaUBKTNV-1">
          <mxGeometry x="615.8" y="64" width="230" height="112" as="geometry" />
        </mxCell>
      </root>
    </mxGraphModel>
  </diagram>
</mxfile>
